<?xml version="1.0" standalone="no"?>
<!DOCTYPE svg PUBLIC "-//W3C//DTD SVG 20010904//EN"
 "http://www.w3.org/TR/2001/REC-SVG-20010904/DTD/svg10.dtd">
<svg version="1.0" xmlns="http://www.w3.org/2000/svg"
 width="1917.000000pt" height="930.000000pt" viewBox="0 0 1917.000000 930.000000"
 preserveAspectRatio="xMidYMid meet">

<g transform="translate(0.000000,930.000000) scale(0.100000,-0.100000)"
fill="#000000" stroke="none">
<path d="M0 4650 l0 -4650 37 0 c36 0 36 0 17 21 -19 21 -19 105 -22 4131 l-2
4110 26 -21 27 -21 9402 0 9402 0 27 21 26 20 0 500 0 499 55 0 c66 0 102 -15
121 -51 12 -24 14 -661 14 -4592 l0 -4564 -21 -27 -20 -26 40 0 41 0 0 4650 0
4650 -9585 0 -9585 0 0 -4650z m3750 4430 l0 -160 -1825 0 -1825 0 0 160 0
160 1825 0 1825 0 0 -160z m-2071 -327 l13 -27 16 27 c12 19 25 27 44 27 l28
0 -25 -40 c-31 -49 -31 -57 0 -101 13 -20 21 -39 18 -43 -14 -14 -43 -4 -61
21 l-19 26 -18 -26 c-11 -17 -26 -27 -41 -27 -30 0 -30 2 2 55 l25 44 -26 46
-27 45 29 0 c23 0 33 -7 42 -27z m388 -3 c3 -11 12 -20 19 -20 8 0 14 -4 14
-10 0 -5 -7 -10 -15 -10 -10 0 -15 -11 -15 -35 0 -25 4 -35 16 -35 20 0 13
-24 -8 -28 -23 -4 -48 25 -48 57 0 15 -6 33 -12 40 -10 11 -10 14 0 18 6 3 12
13 12 24 0 25 30 25 37 -1z m13403 -11 c0 -5 -7 -9 -15 -9 -15 0 -20 12 -9 23
8 8 24 -1 24 -14z m-1780 -14 c0 -21 5 -25 30 -25 25 0 30 4 30 25 0 14 5 25
10 25 6 0 10 -28 10 -65 0 -37 -4 -65 -10 -65 -5 0 -10 14 -10 30 0 27 -3 30
-30 30 -27 0 -30 -3 -30 -30 0 -16 -4 -30 -10 -30 -6 0 -10 28 -10 65 0 37 4
65 10 65 6 0 10 -11 10 -25z m1480 -30 c0 -52 1 -55 25 -55 14 0 25 -4 25 -10
0 -5 -16 -10 -35 -10 l-35 0 0 65 c0 37 4 65 10 65 6 0 10 -25 10 -55z m1500
41 c0 -9 -8 -12 -24 -9 -36 7 -40 -14 -6 -32 25 -13 31 -22 28 -43 -3 -23 -8
-27 -40 -30 -28 -2 -38 1 -38 11 0 10 8 13 24 10 36 -7 40 13 6 33 -31 19 -41
58 -17 67 26 11 67 7 67 -7z m40 4 c0 -5 -4 -10 -10 -10 -5 0 -10 5 -10 10 0
6 5 10 10 10 6 0 10 -4 10 -10z m-14852 -16 c12 -8 22 -24 22 -35 0 -16 -7
-19 -41 -19 -28 0 -39 -4 -36 -12 2 -7 16 -13 30 -13 14 -1 30 -4 34 -9 9 -9
-16 -26 -40 -26 -22 0 -67 43 -67 65 0 19 44 65 62 65 8 0 24 -7 36 -16z m130
0 c12 -8 22 -24 22 -35 0 -16 -7 -19 -41 -19 -28 0 -39 -4 -36 -12 2 -7 17
-13 32 -13 37 -1 44 -21 10 -29 -25 -6 -64 7 -77 28 -14 21 -8 47 17 71 28 29
42 31 73 9z m196 10 c9 -3 16 -12 16 -20 0 -10 -8 -12 -30 -7 -17 3 -30 1 -30
-4 0 -6 13 -13 29 -16 45 -9 52 -59 9 -73 -28 -8 -68 4 -68 21 0 11 8 13 30 9
17 -4 30 -2 30 3 0 5 -13 14 -30 20 -34 13 -41 46 -12 62 20 12 34 13 56 5z
m11696 -44 c6 -12 8 -30 5 -40 -7 -24 -52 -37 -74 -23 -20 13 -26 50 -11 69
19 21 67 18 80 -6z m158 -27 c2 -34 0 -43 -12 -43 -12 0 -16 10 -16 36 0 45
-24 42 -28 -4 -4 -40 -22 -42 -22 -3 0 17 -5 33 -11 37 -14 8 -29 -14 -29 -43
0 -13 -4 -23 -10 -23 -5 0 -10 20 -10 45 l0 45 68 -3 67 -2 3 -42z m92 32 c16
-19 4 -35 -26 -35 -13 0 -24 -5 -24 -11 0 -7 10 -9 25 -6 16 3 24 0 22 -7 -5
-16 -46 -20 -63 -6 -17 15 -18 52 -2 68 16 16 53 15 68 -3z m1180 1 c15 -19 9
-56 -11 -69 -9 -5 -28 -7 -42 -3 -48 12 -32 86 19 86 12 0 27 -7 34 -14z m110
-39 c0 -60 -12 -77 -52 -77 -36 0 -37 18 -1 22 14 2 28 8 30 15 3 7 -3 9 -16
6 -27 -7 -51 13 -51 41 0 31 19 46 57 46 l33 0 0 -53z m50 8 c0 -33 -4 -45
-15 -45 -11 0 -15 12 -15 45 0 33 4 45 15 45 11 0 15 -12 15 -45z m98 -2 c2
-26 -1 -43 -7 -43 -6 0 -11 16 -11 35 0 23 -5 35 -14 35 -15 0 -26 -21 -26
-51 0 -10 -4 -19 -10 -19 -5 0 -10 21 -10 46 l0 45 38 -3 c36 -3 37 -4 40 -45z
m1142 2 c0 -25 -4 -45 -10 -45 -5 0 -10 20 -10 45 0 25 5 45 10 45 6 0 10 -20
10 -45z m110 -1 c0 -64 -13 -84 -55 -84 -19 0 -35 5 -35 10 0 6 14 10 30 10
38 0 40 18 3 22 -22 2 -29 9 -31 31 -6 46 4 57 48 57 l40 0 0 -46z m98 -1 c4
-50 -15 -59 -20 -10 -2 20 -8 32 -18 32 -10 0 -16 -12 -18 -32 -5 -49 -22 -40
-22 11 l0 44 38 -1 c36 -2 37 -3 40 -44z m44 15 c2 -21 8 -33 18 -33 10 0 16
12 18 33 5 48 22 39 22 -12 l0 -44 -37 1 c-37 2 -38 3 -41 45 -4 49 15 58 20
10z m166 -1 c4 -33 -13 -57 -39 -57 -12 0 -19 -7 -19 -20 0 -11 -7 -20 -15
-20 -12 0 -15 14 -15 66 l0 65 43 -3 c38 -3 42 -6 45 -31z"/>
<path d="M110 9085 l0 -145 1815 0 1815 0 0 145 0 145 -1815 0 -1815 0 0 -145z
m180 45 c0 -6 -10 -8 -24 -4 -33 8 -53 -27 -37 -63 9 -20 16 -24 37 -19 17 5
23 3 19 -4 -17 -27 -85 4 -85 39 0 31 30 61 61 61 16 0 29 -5 29 -10z m30 -45
c0 -30 -4 -55 -10 -55 -5 0 -10 25 -10 55 0 30 5 55 10 55 6 0 10 -25 10 -55z
m140 23 c1 -27 2 -30 11 -15 5 9 17 17 26 17 14 0 14 -2 -2 -20 -17 -19 -17
-21 0 -40 12 -14 14 -20 5 -20 -7 0 -19 8 -26 18 -13 16 -13 16 -14 0 0 -10
-4 -18 -10 -18 -5 0 -10 25 -10 55 0 30 5 55 10 55 6 0 10 -15 10 -32z m520
18 c0 -8 10 -16 23 -18 18 -2 22 -9 22 -38 0 -32 -3 -35 -32 -38 l-33 -3 0 55
c0 31 5 56 10 56 6 0 10 -6 10 -14z m230 -13 c0 -21 3 -24 12 -15 7 7 19 12
27 12 11 0 10 -4 -4 -20 -17 -19 -17 -21 0 -40 16 -18 16 -20 2 -20 -9 0 -21
8 -26 18 -10 16 -10 16 -11 0 0 -10 -4 -18 -10 -18 -5 0 -10 25 -10 55 0 30 5
55 10 55 6 0 10 -12 10 -27z m124 0 c-7 -16 -14 -32 -14 -38 0 -5 7 -22 14
-37 13 -25 13 -28 0 -28 -12 0 -26 36 -26 65 0 29 14 65 26 65 13 0 13 -3 0
-27z m89 -28 c17 -47 15 -76 -4 -42 -13 22 -38 22 -55 0 -22 -31 -23 -10 -2
45 11 30 25 51 31 49 7 -2 20 -25 30 -52z m47 40 c0 -18 17 -20 22 -3 3 9 9 8
22 -5 10 -9 13 -17 7 -17 -15 0 -14 -57 2 -63 6 -3 2 -6 -10 -6 -20 -1 -23 4
-23 34 0 19 -4 35 -10 35 -5 0 -10 -16 -10 -35 0 -19 -4 -35 -10 -35 -5 0 -10
25 -10 55 0 30 5 55 10 55 6 0 10 -7 10 -15z m190 -34 c0 -43 3 -50 23 -54 16
-3 13 -5 -10 -6 l-33 -1 0 55 c0 30 5 55 10 55 6 0 10 -22 10 -49z m163 42
c-7 -2 -13 -9 -13 -14 0 -14 28 -11 32 3 3 9 9 8 22 -5 10 -9 13 -17 7 -17
-15 0 -14 -57 2 -63 6 -3 2 -6 -10 -6 -20 -1 -23 4 -23 34 0 24 -5 35 -15 35
-10 0 -15 -11 -15 -35 0 -48 -17 -44 -22 5 -4 47 6 70 30 69 10 0 12 -3 5 -6z
m501 -9 c3 -9 6 -31 6 -49 0 -45 -9 -65 -28 -65 -12 0 -13 3 -4 12 7 7 12 30
12 53 0 23 -5 46 -12 53 -9 9 -8 12 4 12 9 0 19 -7 22 -16z m116 2 c0 -8 10
-16 23 -18 18 -2 23 -10 25 -40 2 -22 -1 -38 -7 -38 -6 0 -11 16 -11 36 0 45
-24 42 -28 -4 -5 -53 -22 -36 -22 23 0 30 5 55 10 55 6 0 10 -6 10 -14z m170
-41 c0 -30 -4 -55 -10 -55 -5 0 -10 25 -10 55 0 30 5 55 10 55 6 0 10 -25 10
-55z m90 -1 l0 -55 -32 3 c-30 3 -33 6 -33 38 0 29 4 36 23 38 12 2 22 10 22
18 0 8 5 14 10 14 6 0 10 -25 10 -56z m520 42 c0 -8 10 -16 23 -18 18 -2 23
-10 25 -40 2 -22 -1 -38 -7 -38 -6 0 -11 16 -11 36 0 45 -24 42 -28 -4 -5 -53
-22 -36 -22 23 0 30 5 55 10 55 6 0 10 -6 10 -14z m87 8 c-3 -3 -12 -4 -19 -1
-8 3 -5 6 6 6 11 1 17 -2 13 -5z m-2721 -19 c9 -8 11 -15 5 -15 -15 0 -14 -57
2 -64 6 -3 3 -5 -8 -3 -14 2 -22 12 -25 37 -6 34 -3 60 7 60 2 0 11 -7 19 -15z
m2200 0 c9 -8 11 -15 5 -15 -15 0 -14 -57 2 -64 6 -3 3 -5 -8 -3 -14 2 -22 12
-25 37 -6 34 -3 60 7 60 2 0 11 -7 19 -15z m630 0 c9 -8 11 -15 5 -15 -15 0
-14 -57 2 -64 6 -3 3 -5 -8 -3 -14 2 -22 12 -25 37 -6 34 -3 60 7 60 2 0 11
-7 19 -15z m-3056 -45 c0 -22 -4 -40 -10 -40 -5 0 -10 18 -10 40 0 22 5 40 10
40 6 0 10 -18 10 -40z m70 31 c0 -5 -8 -8 -17 -7 -13 1 -18 -6 -18 -24 0 -18
5 -25 18 -24 9 1 17 -3 17 -8 0 -5 -12 -8 -27 -6 -48 5 -40 78 8 78 11 0 19
-4 19 -9z m254 -13 c16 -26 -4 -53 -40 -53 -23 0 -30 5 -32 23 -2 13 -1 30 2
38 8 20 56 14 70 -8z m126 -21 c0 -50 -13 -67 -49 -66 -21 1 -22 2 -6 6 30 7
43 23 19 23 -38 0 -58 42 -32 68 7 7 25 12 40 12 26 0 28 -3 28 -43z m85 3 c0
-29 -4 -36 -23 -38 -43 -6 -69 37 -40 66 7 7 24 12 38 10 21 -3 25 -8 25 -38z
m205 -1 c0 -38 -2 -40 -27 -37 -35 4 -45 37 -14 45 12 3 21 10 21 15 0 6 -7 8
-15 4 -8 -3 -15 -1 -15 4 0 6 11 10 25 10 23 0 25 -4 25 -41z m80 32 c0 -5 -8
-8 -17 -7 -13 1 -18 -6 -18 -24 0 -18 5 -25 18 -24 9 1 17 -3 17 -8 0 -5 -12
-8 -27 -6 -29 3 -41 32 -29 64 6 15 56 20 56 5z m410 -6 c0 -8 8 -16 18 -16
16 -1 16 -2 0 -6 -10 -2 -18 -11 -18 -19 0 -8 -4 -14 -10 -14 -5 0 -10 7 -10
15 0 8 -8 16 -17 16 -17 1 -17 2 0 6 9 2 17 11 17 19 0 8 5 14 10 14 6 0 10
-7 10 -15z m178 3 c19 -19 14 -28 -18 -28 -23 0 -28 -4 -23 -16 3 -9 13 -14
24 -11 11 3 19 1 19 -4 0 -13 -44 -11 -58 3 -24 24 -7 68 28 68 9 0 21 -5 28
-12z m220 -31 c3 -38 3 -38 -30 -35 -42 4 -51 34 -14 44 14 3 23 10 20 16 -3
5 -12 7 -20 4 -8 -3 -14 -1 -14 5 0 6 12 9 28 7 23 -3 27 -8 30 -41z m98 27
c-9 -8 -16 -26 -16 -40 0 -13 -4 -24 -10 -24 -5 0 -10 16 -10 36 0 45 -24 42
-28 -4 -5 -46 -22 -39 -22 8 l0 40 51 0 c46 0 49 -1 35 -16z m89 -24 c0 -29
-4 -36 -23 -38 -43 -6 -69 37 -40 66 7 7 24 12 38 10 21 -3 25 -8 25 -38z m34
18 l8 -23 7 23 c9 28 20 28 34 0 l11 -23 0 23 c1 12 6 22 11 22 13 0 13 -21 0
-54 -10 -28 -30 -35 -30 -11 0 8 -4 15 -10 15 -5 0 -10 -7 -10 -15 0 -31 -26
-13 -37 25 -11 42 2 56 16 18z m366 -18 c0 -29 -4 -36 -23 -38 -43 -6 -69 37
-40 66 7 7 24 12 38 10 21 -3 25 -8 25 -38z m309 18 c16 -26 -4 -53 -40 -53
-23 0 -30 5 -32 23 -2 13 -1 30 2 38 8 20 56 14 70 -8z m106 11 c0 -6 -7 -9
-15 -6 -8 4 -17 2 -20 -3 -3 -5 4 -12 15 -15 30 -10 21 -39 -13 -43 -15 -2
-27 2 -27 8 0 7 8 9 20 5 27 -8 26 9 -2 27 -12 8 -18 19 -14 26 9 15 56 16 56
1z m78 -11 c3 -14 -3 -18 -23 -18 -17 0 -25 -5 -22 -12 2 -7 15 -12 28 -10 17
2 21 0 12 -9 -6 -6 -21 -9 -34 -7 -25 3 -36 34 -25 64 8 21 60 14 64 -8z m80
0 c3 -14 -3 -18 -23 -18 -17 0 -25 -5 -22 -12 2 -7 15 -12 28 -10 17 2 21 0
12 -9 -6 -6 -21 -9 -34 -7 -25 3 -36 34 -25 64 8 21 60 14 64 -8z m162 -18 c0
-22 -4 -40 -10 -40 -5 0 -10 18 -10 40 0 22 5 40 10 40 6 0 10 -18 10 -40z
m60 30 c0 -5 -7 -7 -15 -4 -20 8 -19 -13 2 -24 21 -12 10 -42 -17 -42 -11 0
-20 4 -20 10 0 5 7 7 15 4 20 -8 19 13 -2 24 -21 12 -10 42 17 42 11 0 20 -4
20 -10z m135 -30 c0 -29 -4 -36 -23 -38 -43 -6 -69 37 -40 66 7 7 24 12 38 10
21 -3 25 -8 25 -38z m93 13 l10 -28 7 28 c4 15 11 27 16 27 13 0 11 -13 -11
-64 -13 -31 -25 -46 -37 -45 -11 0 -13 3 -5 6 6 2 12 13 12 23 0 23 -20 70
-31 70 -9 0 -19 -26 -19 -51 0 -10 -4 -19 -10 -19 -5 0 -10 18 -10 40 0 39 1
40 34 40 28 0 36 -5 44 -27z m-1235 -53 c-3 -11 -9 -20 -14 -20 -10 0 -12 24
-2 33 13 13 21 7 16 -13z"/>
<path d="M987 9093 c-4 -3 -7 -17 -7 -30 0 -33 24 -24 28 10 3 26 -7 35 -21
20z"/>
<path d="M1380 9085 c0 -8 5 -15 10 -15 6 0 10 7 10 15 0 8 -4 15 -10 15 -5 0
-10 -7 -10 -15z"/>
<path d="M2657 9093 c-4 -3 -7 -17 -7 -30 0 -33 24 -24 28 10 3 26 -7 35 -21
20z"/>
<path d="M634 9086 c-8 -22 3 -49 19 -43 6 2 12 14 12 27 0 27 -22 39 -31 16z"/>
<path d="M757 9085 c-8 -20 3 -47 17 -42 6 2 11 14 11 27 0 27 -20 38 -28 15z"/>
<path d="M844 9086 c-8 -22 3 -49 19 -43 6 2 12 14 12 27 0 27 -22 39 -31 16z"/>
<path d="M1066 9061 c-4 -7 -5 -15 -2 -18 9 -9 19 4 14 18 -4 11 -6 11 -12 0z"/>
<path d="M1725 9090 c-3 -5 3 -10 15 -10 12 0 18 5 15 10 -3 6 -10 10 -15 10
-5 0 -12 -4 -15 -10z"/>
<path d="M1945 9059 c-4 -6 -5 -13 -2 -16 7 -7 27 6 27 18 0 12 -17 12 -25 -2z"/>
<path d="M2124 9086 c-8 -22 3 -49 19 -43 6 2 12 14 12 27 0 27 -22 39 -31 16z"/>
<path d="M2524 9086 c-8 -22 3 -49 19 -43 6 2 12 14 12 27 0 27 -22 39 -31 16z"/>
<path d="M2834 9086 c-8 -22 3 -49 19 -43 6 2 12 14 12 27 0 27 -22 39 -31 16z"/>
<path d="M3025 9090 c-3 -5 1 -10 9 -10 9 0 16 5 16 10 0 6 -4 10 -9 10 -6 0
-13 -4 -16 -10z"/>
<path d="M3100 9090 c0 -5 7 -10 16 -10 8 0 12 5 9 10 -3 6 -10 10 -16 10 -5
0 -9 -4 -9 -10z"/>
<path d="M3454 9086 c-8 -22 3 -49 19 -43 6 2 12 14 12 27 0 27 -22 39 -31 16z"/>
<path d="M1805 8700 c-4 -6 5 -10 20 -10 15 0 24 4 20 10 -3 6 -12 10 -20 10
-8 0 -17 -4 -20 -10z"/>
<path d="M1935 8700 c-4 -6 5 -10 20 -10 15 0 24 4 20 10 -3 6 -12 10 -20 10
-8 0 -17 -4 -20 -10z"/>
<path d="M13817 8677 c-3 -8 -2 -20 3 -27 11 -18 42 -4 38 17 -4 22 -34 29
-41 10z"/>
<path d="M14088 8683 c7 -3 16 -2 19 1 4 3 -2 6 -13 5 -11 0 -14 -3 -6 -6z"/>
<path d="M15254 8675 c-4 -9 -2 -21 4 -27 15 -15 44 -1 40 19 -4 23 -36 29
-44 8z"/>
<path d="M15360 8665 c0 -20 4 -26 18 -23 9 2 17 12 17 23 0 11 -8 21 -17 23
-14 3 -18 -3 -18 -23z"/>
<path d="M16754 8675 c-7 -18 3 -35 22 -35 8 0 14 10 14 25 0 27 -27 35 -36
10z"/>
<path d="M17070 8665 c0 -20 4 -26 18 -23 9 2 17 12 17 23 0 11 -8 21 -17 23
-14 3 -18 -3 -18 -23z"/>
<path d="M19006 9123 l-17 -28 20 23 c10 12 22 22 26 22 4 0 16 -10 26 -22
l20 -23 -17 28 c-9 15 -22 27 -29 27 -7 0 -20 -12 -29 -27z"/>
<path d="M18980 9078 c0 -5 25 -8 55 -8 30 0 55 3 55 8 0 4 -25 7 -55 7 -30 0
-55 -3 -55 -7z"/>
<path d="M7340 5080 l0 -280 55 0 55 0 0 280 0 280 -55 0 -55 0 0 -280z"/>
<path d="M8620 5080 l0 -280 55 0 55 0 0 124 c0 110 2 126 21 150 24 31 68 35
92 8 14 -15 17 -42 17 -150 l0 -132 60 0 60 0 0 126 c0 191 -22 248 -103 261
-47 7 -79 -1 -116 -33 l-31 -26 0 116 0 116 -55 0 -55 0 0 -280z"/>
<path d="M10972 5344 c-28 -19 -29 -57 -2 -84 39 -39 110 -14 110 40 0 32 -31
60 -65 60 -11 0 -31 -7 -43 -16z"/>
<path d="M6382 5138 c5 -227 16 -267 89 -315 38 -25 51 -28 123 -28 97 0 146
20 181 74 36 54 44 110 45 294 l0 167 -60 0 -60 0 0 -182 c0 -164 -2 -186 -20
-215 -33 -55 -124 -55 -160 0 -12 17 -16 65 -18 210 l-4 187 -60 0 -60 0 4
-192z"/>
<path d="M7085 5178 c-11 -6 -30 -20 -42 -31 l-23 -20 0 26 c0 26 -2 27 -60
27 l-60 0 0 -190 0 -190 60 0 60 0 0 128 c0 115 2 130 20 150 27 29 74 29 94
0 13 -18 16 -51 16 -150 l0 -128 61 0 61 0 -4 148 c-4 161 -17 203 -69 229
-30 16 -87 16 -114 1z"/>
<path d="M7634 5180 c-65 -20 -124 -114 -124 -195 0 -127 88 -204 223 -193 88
7 107 19 107 67 l0 39 -37 -14 c-90 -32 -173 -2 -173 62 0 11 23 14 120 14
l120 0 0 48 c0 56 -32 127 -71 154 -30 22 -120 32 -165 18z m108 -87 c10 -9
18 -27 18 -40 0 -22 -3 -23 -65 -23 -73 0 -84 14 -43 57 25 27 64 30 90 6z"/>
<path d="M7980 5177 c-44 -12 -45 -13 -48 -54 -2 -24 -1 -43 1 -43 3 0 21 7
40 15 72 30 153 11 145 -33 -2 -12 -23 -19 -76 -27 -109 -17 -157 -62 -148
-139 9 -76 64 -116 141 -102 21 4 48 18 61 31 l24 24 0 -24 c0 -24 3 -25 55
-25 l55 0 0 138 c0 151 -10 187 -62 226 -34 24 -124 31 -188 13z m138 -234
c-4 -49 -45 -81 -85 -67 -20 7 -29 17 -31 38 -4 34 6 46 50 56 65 15 70 14 66
-27z"/>
<path d="M8350 5168 c-49 -25 -70 -56 -70 -105 0 -46 39 -86 110 -112 34 -13
64 -30 67 -38 15 -39 -75 -57 -142 -29 l-35 15 0 -44 c0 -24 5 -47 11 -51 21
-13 134 -16 174 -5 61 16 100 62 100 116 0 56 -27 86 -107 116 -63 23 -78 40
-58 64 14 17 76 20 114 5 25 -9 26 -9 26 34 0 41 -2 44 -31 50 -60 12 -115 6
-159 -16z"/>
<path d="M9715 5175 c-126 -45 -166 -229 -70 -328 107 -110 312 -56 344 92 37
174 -104 296 -274 236z m135 -93 c24 -19 38 -91 26 -137 -15 -60 -88 -86 -136
-47 -24 19 -38 91 -26 137 15 60 88 86 136 47z"/>
<path d="M10638 5160 c-36 -36 -38 -37 -38 -5 0 24 -3 25 -55 25 l-55 0 0
-190 0 -190 55 0 55 0 0 100 c0 145 29 198 101 188 29 -5 29 -4 29 49 0 53 0
53 -31 53 -21 0 -40 -10 -61 -30z"/>
<path d="M11340 5183 c-8 -3 -27 -17 -42 -31 l-28 -26 0 27 c0 26 -2 27 -60
27 l-60 0 0 -190 0 -190 60 0 60 0 0 130 c0 117 2 132 20 150 27 27 75 26 94
-2 13 -18 16 -51 16 -150 l0 -128 55 0 55 0 0 150 c0 168 -8 198 -60 225 -29
15 -81 19 -110 8z"/>
<path d="M11770 5179 c-14 -5 -35 -20 -47 -31 l-23 -21 0 26 c0 26 -2 27 -55
27 l-55 0 0 -190 0 -190 55 0 55 0 0 124 c0 110 2 126 21 150 24 31 68 35 92
8 14 -15 17 -42 17 -150 l0 -132 60 0 60 0 0 133 c0 148 -9 193 -44 226 -28
27 -97 37 -136 20z"/>
<path d="M12115 5176 c-96 -43 -143 -179 -96 -281 36 -78 102 -111 200 -102
92 9 111 20 111 66 l0 39 -37 -14 c-80 -28 -152 -9 -171 46 l-11 30 126 0 126
0 -6 60 c-3 33 -14 75 -24 92 -36 64 -146 96 -218 64z m117 -83 c10 -9 18 -27
18 -40 0 -22 -3 -23 -69 -23 -63 0 -69 2 -64 19 14 54 77 78 115 44z"/>
<path d="M12554 5154 l-34 -35 0 30 c0 31 0 31 -55 31 l-55 0 0 -190 0 -190
55 0 55 0 0 100 c0 145 29 198 101 188 29 -5 29 -4 29 49 0 53 0 53 -31 53
-23 0 -41 -10 -65 -36z"/>
<path d="M9193 5168 c3 -7 37 -93 76 -191 68 -169 70 -179 58 -210 -20 -45
-41 -60 -82 -55 l-35 4 0 -42 c0 -45 10 -54 61 -54 46 0 94 25 124 64 22 29
152 353 189 474 7 21 5 22 -48 22 l-54 0 -30 -97 c-17 -54 -36 -117 -43 -141
l-12 -43 -34 113 c-18 62 -36 125 -39 141 -6 26 -9 27 -71 27 -48 0 -64 -3
-60 -12z"/>
<path d="M10050 5041 c0 -145 7 -181 42 -218 40 -43 125 -42 173 3 32 30 35
30 35 -1 0 -24 3 -25 55 -25 l55 0 0 190 0 190 -54 0 -54 0 -3 -129 c-3 -110
-7 -132 -23 -150 -22 -24 -63 -27 -92 -7 -17 13 -19 29 -22 150 l-4 136 -54 0
-54 0 0 -139z"/>
<path d="M10960 4990 l0 -190 55 0 55 0 0 190 0 190 -55 0 -55 0 0 -190z"/>
<path d="M11171 4602 c-48 -24 -70 -59 -78 -120 -5 -49 -7 -52 -34 -52 -28 0
-29 -2 -29 -45 0 -43 1 -45 30 -45 l30 0 0 -145 0 -145 60 0 60 0 0 145 0 145
40 0 40 0 0 45 0 45 -40 0 c-40 0 -40 0 -40 39 0 48 19 65 65 59 l35 -4 0 42
c0 29 -5 44 -16 48 -30 11 -89 6 -123 -12z"/>
<path d="M5960 4330 l0 -280 60 0 c55 0 60 2 60 22 l0 21 24 -22 c36 -34 95
-38 150 -12 62 31 96 98 96 190 -1 112 -42 174 -123 188 -47 7 -79 -2 -116
-33 l-31 -26 0 116 0 116 -60 0 -60 0 0 -280z m240 10 c28 -15 43 -79 31 -132
-17 -73 -80 -101 -128 -56 -19 18 -23 32 -23 85 0 55 4 68 25 88 25 26 63 32
95 15z"/>
<path d="M6410 4330 l0 -280 55 0 55 0 0 280 0 280 -55 0 -55 0 0 -280z"/>
<path d="M10031 4584 c-44 -56 34 -124 94 -80 11 8 18 26 18 46 0 60 -73 83
-112 34z"/>
<path d="M12380 4330 l0 -280 60 0 60 0 0 280 0 280 -60 0 -60 0 0 -280z"/>
<path d="M8965 4568 c2 -7 30 -110 60 -228 31 -118 60 -232 66 -252 l10 -38
68 0 68 0 49 190 49 190 49 -190 49 -191 66 3 66 3 67 255 c37 140 67 258 67
263 1 4 -25 7 -57 7 l-59 0 -37 -182 c-20 -101 -37 -190 -37 -198 -1 -30 -18
28 -61 203 l-42 177 -63 0 c-62 0 -62 0 -71 -32 -5 -18 -29 -106 -53 -195 -24
-89 -44 -161 -45 -160 -1 1 -18 79 -38 172 -20 94 -38 180 -41 193 -5 20 -11
22 -70 22 -47 0 -63 -3 -60 -12z"/>
<path d="M10293 4522 c-52 -15 -53 -16 -53 -53 0 -37 -2 -39 -31 -39 -29 0
-30 -1 -27 -42 3 -38 6 -43 29 -46 26 -3 26 -3 31 -110 7 -153 34 -192 134
-192 54 0 64 8 64 51 0 36 -2 39 -28 39 -45 0 -52 15 -52 117 l0 93 40 0 40 0
0 45 0 45 -40 0 -40 0 0 55 c0 30 -3 54 -7 54 -5 -1 -32 -8 -60 -17z"/>
<path d="M6705 4425 c-126 -45 -166 -229 -70 -328 107 -110 312 -56 344 92 37
174 -104 296 -274 236z m135 -93 c24 -19 38 -91 26 -137 -15 -60 -88 -86 -136
-47 -24 19 -38 91 -26 137 15 60 88 86 136 47z"/>
<path d="M7124 4426 c-69 -30 -112 -130 -100 -230 18 -144 154 -204 254 -113
l22 20 0 -22 c0 -36 -27 -88 -54 -106 -20 -13 -41 -16 -89 -13 -34 3 -70 9
-80 13 -16 7 -18 3 -15 -41 3 -45 5 -48 38 -57 19 -5 65 -7 102 -4 93 6 152
41 184 110 23 49 24 62 24 250 l0 197 -55 0 c-48 0 -55 -2 -55 -20 0 -18 -2
-18 -36 5 -41 28 -92 32 -140 11z m146 -96 c25 -25 34 -61 27 -112 -11 -82
-92 -118 -136 -62 -36 46 -22 170 21 187 29 12 69 6 88 -13z"/>
<path d="M7566 4421 c-67 -35 -94 -90 -95 -192 -1 -50 4 -76 22 -109 46 -87
160 -107 227 -40 l20 20 0 -31 c0 -37 -15 -68 -44 -91 -27 -23 -125 -24 -166
-3 l-30 16 0 -50 c0 -49 1 -50 38 -60 87 -25 208 -3 254 46 57 62 62 82 66
301 l4 202 -61 0 c-56 0 -61 -2 -61 -22 l0 -21 -24 22 c-35 33 -100 38 -150
12z m153 -97 c32 -41 30 -136 -4 -169 -65 -66 -150 6 -131 110 16 81 91 114
135 59z"/>
<path d="M8030 4425 c-77 -35 -110 -92 -110 -192 0 -117 53 -179 163 -190 30
-3 78 0 106 7 l51 12 0 43 0 43 -42 -15 c-59 -20 -117 -11 -145 22 -44 50 -35
55 98 55 l121 0 -4 65 c-4 69 -21 101 -71 139 -35 26 -121 31 -167 11z m113
-77 c9 -7 19 -25 23 -40 l6 -28 -71 0 c-79 0 -86 8 -50 54 22 28 64 35 92 14z"/>
<path d="M8500 4433 c-8 -3 -25 -17 -37 -31 l-23 -27 0 28 c0 26 -1 27 -60 27
l-60 0 0 -190 0 -190 60 0 60 0 0 120 c0 117 1 122 26 147 21 21 32 25 65 20
l40 -5 -3 51 c-3 47 -5 52 -28 54 -14 1 -32 -1 -40 -4z"/>
<path d="M9888 4410 c-36 -36 -38 -37 -38 -5 0 24 -3 25 -55 25 l-55 0 0 -190
0 -190 55 0 55 0 0 100 c0 145 29 198 101 188 29 -5 29 -4 29 49 0 53 0 53
-31 53 -21 0 -40 -10 -61 -30z"/>
<path d="M10580 4425 c-77 -35 -110 -92 -110 -192 0 -117 53 -179 163 -190 30
-3 78 0 106 7 l51 12 0 43 0 43 -42 -15 c-59 -20 -117 -11 -145 22 -44 50 -35
55 98 55 l121 0 -4 65 c-4 69 -21 101 -71 139 -35 26 -121 31 -167 11z m113
-77 c9 -7 19 -25 23 -40 l6 -28 -71 0 c-79 0 -86 8 -50 54 22 28 64 35 92 14z"/>
<path d="M11510 4433 c-8 -3 -25 -17 -37 -31 l-23 -27 0 28 c0 26 -1 27 -60
27 l-60 0 0 -190 0 -190 60 0 60 0 0 120 c0 117 1 122 26 147 21 21 32 25 65
20 l40 -5 -3 51 c-3 47 -5 52 -28 54 -14 1 -32 -1 -40 -4z"/>
<path d="M11700 4425 c-77 -35 -110 -92 -110 -192 0 -81 26 -136 78 -166 43
-25 144 -33 197 -15 37 12 40 16 43 55 l3 41 -43 -15 c-59 -20 -117 -11 -145
22 -44 50 -35 55 98 55 l121 0 -4 65 c-4 69 -21 101 -71 139 -35 26 -121 31
-167 11z m113 -77 c9 -7 19 -25 23 -40 l6 -28 -71 0 c-79 0 -86 8 -50 54 22
28 64 35 92 14z"/>
<path d="M12094 4430 c-65 -20 -124 -114 -124 -195 0 -129 89 -205 225 -192
89 8 105 19 105 66 l0 39 -37 -14 c-90 -32 -173 -2 -173 62 0 11 23 14 120 14
l120 0 0 48 c0 56 -32 127 -71 154 -30 22 -120 32 -165 18z m108 -87 c10 -9
18 -27 18 -40 0 -22 -3 -23 -65 -23 -73 0 -84 14 -43 57 25 27 64 30 90 6z"/>
<path d="M8642 4414 c-45 -31 -16 -104 43 -104 34 0 65 28 65 60 0 32 -31 60
-65 60 -11 0 -31 -7 -43 -16z"/>
<path d="M10020 4240 l0 -190 60 0 60 0 0 190 0 190 -60 0 -60 0 0 -190z"/>
<path d="M12533 4418 c3 -7 37 -93 76 -191 68 -169 70 -179 58 -210 -20 -45
-41 -60 -82 -55 l-35 4 0 -42 c0 -45 10 -54 61 -54 46 0 94 25 124 64 22 29
152 353 189 474 7 21 5 22 -48 22 l-54 0 -30 -97 c-17 -54 -36 -117 -43 -141
l-12 -43 -34 113 c-18 62 -36 125 -39 141 -6 26 -9 27 -71 27 -48 0 -64 -3
-60 -12z"/>
<path d="M8642 4144 c-45 -31 -16 -104 43 -104 34 0 65 28 65 60 0 32 -31 60
-65 60 -11 0 -31 -7 -43 -16z"/>
<path d="M12906 4068 c-22 -114 -23 -110 26 -106 l42 3 27 93 27 92 -53 0 -52
0 -17 -82z"/>
<path d="M8781 3852 c-48 -24 -70 -59 -78 -120 -5 -49 -7 -52 -34 -52 -28 0
-29 -2 -29 -45 0 -43 1 -45 30 -45 l30 0 0 -145 0 -145 60 0 60 0 0 145 0 145
40 0 40 0 0 45 0 45 -40 0 c-40 0 -40 0 -40 39 0 48 19 65 65 59 l35 -4 0 42
c0 29 -5 44 -16 48 -30 11 -89 6 -123 -12z"/>
<path d="M7819 3748 c0 -62 -3 -107 -6 -100 -7 19 -58 42 -92 42 -101 0 -170
-85 -171 -209 0 -74 24 -134 68 -166 40 -29 126 -28 170 3 32 23 32 23 32 3 0
-19 6 -21 55 -21 l55 0 0 280 0 280 -55 0 -55 0 -1 -112z m-22 -170 c19 -18
23 -32 23 -85 0 -55 -4 -68 -25 -88 -45 -46 -108 -28 -125 35 -30 113 55 206
127 138z"/>
<path d="M8032 3844 c-28 -19 -29 -57 -2 -84 39 -39 110 -14 110 40 0 32 -31
60 -65 60 -11 0 -31 -7 -43 -16z"/>
<path d="M8940 3580 l0 -280 60 0 60 0 0 280 0 280 -60 0 -60 0 0 -280z"/>
<path d="M10100 3580 l0 -280 60 0 60 0 0 280 0 280 -60 0 -60 0 0 -280z"/>
<path d="M11310 3580 l0 -280 55 0 55 0 0 280 0 280 -55 0 -55 0 0 -280z"/>
<path d="M8288 3773 c-47 -14 -48 -15 -48 -54 0 -37 -2 -39 -30 -39 -29 0 -30
-2 -30 -45 0 -43 1 -45 30 -45 l30 0 0 -110 c0 -127 12 -162 61 -179 36 -12
98 -14 115 -3 6 4 13 25 15 47 4 40 4 41 -25 37 -45 -7 -56 17 -56 120 l0 88
40 0 40 0 0 45 0 45 -40 0 -40 0 0 55 c0 30 -3 55 -7 54 -5 -1 -29 -8 -55 -16z"/>
<path d="M7284 3680 c-65 -20 -124 -114 -124 -195 0 -127 88 -204 223 -193 88
7 107 19 107 67 l0 39 -37 -14 c-88 -31 -173 -1 -173 60 0 14 18 16 120 16
l120 0 0 48 c0 56 -32 127 -71 154 -30 22 -120 32 -165 18z m108 -87 c10 -9
18 -27 18 -40 0 -22 -3 -23 -65 -23 -73 0 -84 14 -43 57 25 27 64 30 90 6z"/>
<path d="M9200 3677 c-44 -12 -45 -13 -48 -54 -2 -24 -1 -43 1 -43 3 0 21 7
40 15 72 30 153 11 145 -33 -2 -12 -23 -19 -76 -27 -102 -16 -152 -58 -152
-130 0 -39 33 -93 66 -105 55 -21 130 -3 153 37 9 15 10 14 11 -9 0 -27 2 -28
55 -28 l55 0 0 138 c0 151 -10 187 -62 226 -34 24 -124 31 -188 13z m140 -227
c0 -34 -38 -80 -65 -80 -33 0 -55 20 -55 50 0 32 8 40 54 51 59 14 66 11 66
-21z"/>
<path d="M10390 3675 c-82 -37 -113 -96 -108 -204 3 -85 26 -129 80 -157 43
-22 127 -29 187 -14 l51 12 0 43 0 43 -42 -15 c-59 -20 -117 -11 -145 22 -44
50 -35 55 98 55 l121 0 -4 65 c-4 69 -21 101 -71 139 -35 26 -121 31 -167 11z
m113 -77 c9 -7 19 -25 23 -40 l6 -28 -71 0 c-79 0 -86 8 -50 54 22 28 64 35
92 14z"/>
<path d="M10730 3668 c-49 -25 -70 -56 -70 -105 0 -46 39 -86 109 -112 32 -12
62 -29 66 -38 15 -40 -72 -57 -140 -29 l-35 15 0 -44 c0 -24 5 -47 11 -51 21
-13 134 -16 174 -5 61 16 100 62 100 116 0 56 -27 86 -107 116 -63 23 -78 40
-58 64 14 17 76 20 114 5 25 -9 26 -9 26 34 0 41 -2 44 -31 50 -60 12 -115 6
-159 -16z"/>
<path d="M11040 3668 c-49 -25 -70 -56 -70 -105 0 -46 39 -86 109 -112 32 -12
62 -29 66 -38 15 -40 -72 -57 -140 -29 l-35 15 0 -44 c0 -24 5 -47 11 -51 21
-13 134 -16 174 -5 61 16 100 62 100 116 0 56 -27 86 -107 116 -63 23 -78 40
-58 64 14 17 76 20 114 5 25 -9 26 -9 26 34 0 41 -2 44 -31 50 -60 12 -115 6
-159 -16z"/>
<path d="M8020 3490 l0 -190 55 0 55 0 0 190 0 190 -55 0 -55 0 0 -190z"/>
<path d="M9506 3593 c13 -49 37 -133 52 -188 l28 -100 60 -3 61 -3 34 129 33
130 31 -127 31 -126 61 -3 62 -3 10 38 c6 21 30 107 55 191 l43 152 -53 0 -53
0 -10 -52 c-6 -29 -19 -93 -29 -142 l-17 -88 -33 141 -33 141 -54 0 -54 0 -15
-52 c-8 -29 -20 -73 -26 -98 -6 -25 -16 -63 -22 -85 l-11 -40 -17 80 c-10 44
-23 106 -30 138 l-11 57 -59 0 -58 0 24 -87z"/>
<path d="M11469 3633 c10 -27 45 -112 76 -191 l58 -143 -18 -40 c-19 -42 -45
-55 -90 -47 -23 5 -25 3 -25 -37 0 -46 10 -55 60 -55 62 0 118 37 150 100 19
38 170 438 170 452 0 4 -24 8 -54 8 l-54 0 -22 -72 c-12 -40 -29 -98 -38 -128
-8 -30 -18 -58 -21 -62 -3 -4 -24 54 -45 128 l-39 134 -63 0 -64 0 19 -47z"/>
<path d="M18990 3071 c0 -10 19 -25 25 -20 1 2 -3 10 -11 17 -8 7 -14 8 -14 3z"/>
<path d="M19062 3064 c-7 -8 -8 -14 -3 -14 10 0 25 19 20 25 -2 1 -10 -3 -17
-11z"/>
<path d="M6020 2727 l0 -84 35 -1 c45 -2 67 21 63 66 -4 43 -29 63 -58 44 -29
-18 -33 -15 -28 23 2 19 0 35 -4 35 -4 0 -8 -38 -8 -83z m74 7 c32 -31 14 -76
-31 -79 -26 -1 -29 1 -28 31 2 32 19 64 36 64 4 0 15 -7 23 -16z"/>
<path d="M6662 2798 c-7 -7 -12 -18 -12 -25 0 -7 -5 -13 -12 -13 -9 0 -9 -3 0
-12 7 -7 12 -34 12 -60 0 -26 3 -48 8 -48 4 0 5 21 3 47 -2 36 1 50 15 60 16
12 16 13 1 13 -24 0 -21 16 5 34 16 11 18 16 7 16 -8 0 -20 -5 -27 -12z"/>
<path d="M6840 2725 c0 -47 3 -85 8 -85 4 0 7 38 7 85 0 47 -3 85 -7 85 -5 0
-8 -38 -8 -85z"/>
<path d="M6955 2725 c0 -47 3 -85 8 -85 4 0 7 5 7 12 0 9 3 9 12 0 34 -34 85
13 73 68 -7 34 -45 50 -70 30 -13 -11 -15 -7 -15 24 0 20 -3 36 -7 36 -5 0 -8
-38 -8 -85z m85 -25 c0 -34 -26 -53 -53 -39 -22 13 -22 65 0 78 27 14 53 -5
53 -39z"/>
<path d="M7094 2725 c0 -49 1 -71 3 -48 2 23 2 64 0 90 -2 26 -3 8 -3 -42z"/>
<path d="M8380 2781 c0 -24 -3 -28 -22 -24 -33 6 -59 -18 -60 -54 -1 -45 16
-62 63 -60 l39 1 0 83 c0 49 -4 83 -10 83 -5 0 -10 -13 -10 -29z m-12 -43 c19
-19 15 -66 -7 -78 -39 -20 -68 41 -35 74 19 19 26 20 42 4z"/>
<path d="M8590 2725 c0 -50 4 -85 10 -85 6 0 10 20 10 45 0 33 5 47 18 54 27
15 42 -5 42 -56 0 -24 5 -43 10 -43 13 0 13 76 0 101 -12 21 -40 25 -58 7 -9
-9 -12 -4 -12 25 0 20 -4 37 -10 37 -6 0 -10 -35 -10 -85z"/>
<path d="M9600 2800 c0 -5 5 -10 10 -10 6 0 10 5 10 10 0 6 -4 10 -10 10 -5 0
-10 -4 -10 -10z"/>
<path d="M9732 2781 c4 -28 2 -29 -22 -24 -35 7 -60 -19 -60 -61 0 -42 15 -55
63 -53 l37 1 0 83 c0 54 -4 83 -11 83 -7 0 -10 -12 -7 -29z m-9 -45 c16 -17
12 -60 -8 -76 -35 -29 -71 35 -40 70 22 24 29 25 48 6z"/>
<path d="M10340 2800 c0 -5 5 -10 10 -10 6 0 10 5 10 10 0 6 -4 10 -10 10 -5
0 -10 -4 -10 -10z"/>
<path d="M10470 2725 c0 -47 4 -85 8 -85 4 0 6 15 4 33 -5 44 28 88 51 68 9
-7 18 -33 20 -59 l3 -47 2 51 c2 61 -16 86 -49 66 -28 -18 -32 -15 -27 23 2
19 0 35 -4 35 -4 0 -8 -38 -8 -85z"/>
<path d="M10735 2725 c0 -47 3 -85 8 -85 4 0 7 20 7 45 0 32 5 47 18 53 30 16
42 3 42 -49 0 -27 5 -49 10 -49 13 0 13 76 0 101 -12 21 -40 25 -58 7 -9 -9
-12 -4 -12 25 0 20 -3 37 -7 37 -5 0 -8 -38 -8 -85z"/>
<path d="M11424 2725 c0 -49 1 -71 3 -48 2 23 2 64 0 90 -2 26 -3 8 -3 -42z"/>
<path d="M11550 2780 c0 -27 -2 -29 -29 -24 -24 5 -32 1 -47 -21 -31 -47 12
-115 55 -88 15 10 21 10 24 0 3 -7 6 27 6 76 1 48 -1 87 -4 87 -3 0 -5 -13 -5
-30z m-12 -42 c34 -34 -7 -108 -44 -77 -20 16 -18 66 4 78 22 13 26 13 40 -1z"/>
<path d="M12284 2725 c0 -49 1 -71 3 -48 2 23 2 64 0 90 -2 26 -3 8 -3 -42z"/>
<path d="M12542 2798 c-7 -7 -12 -17 -12 -24 0 -7 -6 -15 -12 -17 -10 -4 -10
-6 0 -6 8 -1 12 -19 12 -56 0 -30 5 -55 10 -55 6 0 10 24 10 54 0 34 5 56 13
59 10 4 10 6 0 6 -19 1 -16 28 5 40 14 9 14 10 2 11 -9 0 -21 -5 -28 -12z"/>
<path d="M13373 2725 c0 -49 2 -78 4 -62 5 33 13 34 43 2 13 -14 28 -25 34
-25 5 0 -3 13 -18 29 l-28 30 21 30 c27 37 17 42 -11 6 -29 -37 -37 -31 -41
28 -2 28 -3 12 -4 -38z"/>
<path d="M5335 2775 c-50 -49 -17 -135 51 -135 39 0 37 19 -3 22 -29 2 -41 9
-53 31 -13 24 -13 30 0 55 12 21 24 28 53 30 21 2 35 7 32 13 -11 17 -56 9
-80 -16z"/>
<path d="M11745 2788 c-29 -16 -35 -28 -35 -70 0 -68 61 -99 114 -57 20 16 26
29 26 59 0 64 -53 98 -105 68z m79 -24 c9 -8 16 -28 16 -44 0 -36 -23 -60 -57
-60 -55 0 -83 62 -46 102 20 22 66 24 87 2z"/>
<path d="M5768 2770 c-10 -11 -14 -20 -8 -20 5 0 10 -24 12 -52 2 -44 6 -53
23 -56 16 -3 18 -1 8 9 -7 7 -13 32 -13 55 0 32 4 44 18 47 15 4 15 5 0 6 -9
0 -18 8 -20 16 -2 13 -6 12 -20 -5z"/>
<path d="M6521 2778 c0 -10 -6 -18 -12 -18 -8 0 -8 -4 -1 -13 6 -7 12 -33 14
-57 2 -36 7 -46 23 -49 19 -3 19 -3 3 16 -10 11 -18 34 -18 51 0 19 7 35 18
41 15 9 15 10 0 11 -9 0 -19 8 -21 18 -4 16 -5 16 -6 0z"/>
<path d="M7840 2785 c-1 -5 -2 -13 -1 -17 0 -5 -7 -8 -16 -8 -15 0 -16 -2 -3
-10 9 -6 14 -21 11 -45 -1 -20 3 -43 9 -51 14 -16 40 -19 40 -4 0 6 -6 9 -12
8 -22 -5 -23 74 -2 89 16 11 16 13 2 13 -9 0 -19 8 -21 18 -3 9 -6 13 -7 7z"/>
<path d="M10400 2775 c0 -8 -5 -15 -12 -15 -9 0 -9 -3 0 -12 7 -7 12 -31 12
-55 0 -30 5 -45 15 -50 23 -8 33 7 12 18 -23 13 -23 74 1 88 16 10 16 10 0 11
-11 0 -15 5 -12 15 4 8 1 15 -5 15 -6 0 -11 -7 -11 -15z"/>
<path d="M10671 2778 c0 -10 -6 -18 -12 -18 -8 0 -8 -4 -1 -13 6 -7 12 -33 14
-57 2 -33 8 -46 21 -48 9 -2 17 1 17 7 0 6 -6 10 -12 9 -22 -5 -23 74 -2 89
16 11 16 13 2 13 -9 0 -19 8 -21 18 -4 16 -5 16 -6 0z"/>
<path d="M12461 2778 c0 -10 -6 -18 -12 -18 -8 0 -8 -4 -1 -13 6 -7 12 -33 14
-57 2 -36 7 -45 23 -48 18 -2 18 -2 3 8 -12 7 -18 24 -18 50 0 27 6 42 18 49
15 9 15 10 0 11 -9 0 -19 8 -21 18 -4 16 -5 16 -6 0z"/>
<path d="M5462 2700 l1 -65 7 50 c4 28 3 57 -1 65 -5 9 -8 -11 -7 -50z"/>
<path d="M5485 2750 c-3 -5 1 -10 9 -10 9 0 16 5 16 10 0 6 -4 10 -9 10 -6 0
-13 -4 -16 -10z"/>
<path d="M5545 2744 c-10 -11 -15 -29 -13 -53 2 -29 8 -38 31 -45 20 -7 30 -6
40 4 10 10 9 12 -6 7 -23 -9 -57 9 -57 28 0 11 12 15 40 15 32 0 40 4 40 18 0
40 -45 55 -75 26z m65 -24 c0 -6 -16 -10 -35 -10 -40 0 -41 2 -19 24 12 12 20
13 35 6 10 -6 19 -15 19 -20z"/>
<path d="M5660 2750 c-12 -8 -8 -10 14 -8 40 4 44 -17 6 -30 -58 -21 -48 -71
15 -69 35 1 35 1 35 47 0 63 -29 87 -70 60z m37 -87 c-18 -18 -37 -9 -37 17 0
12 8 20 23 22 27 4 35 -18 14 -39z"/>
<path d="M5850 2740 c-24 -24 -25 -48 -4 -78 16 -24 58 -30 70 -10 5 8 2 9
-10 5 -22 -9 -56 9 -56 28 0 11 12 15 40 15 44 0 52 16 24 44 -21 21 -40 20
-64 -4z m60 -16 c0 -9 -11 -14 -30 -14 -33 0 -39 14 -13 28 21 12 43 5 43 -14z"/>
<path d="M6166 2744 c-9 -8 -16 -31 -16 -50 0 -43 35 -65 72 -45 l23 12 -24
-5 c-29 -6 -61 9 -61 29 0 11 12 15 40 15 32 0 40 4 40 18 0 39 -45 55 -74 26z
m64 -24 c0 -6 -16 -10 -35 -10 -40 0 -41 2 -19 24 12 12 20 13 35 6 10 -6 19
-15 19 -20z"/>
<path d="M6280 2750 c-12 -8 -8 -10 14 -8 40 4 44 -17 6 -30 -58 -21 -48 -71
15 -69 35 1 35 1 35 47 0 63 -29 87 -70 60z m37 -87 c-18 -18 -37 -9 -37 17 0
12 8 20 23 22 27 4 35 -18 14 -39z"/>
<path d="M6380 2719 c0 -68 34 -101 68 -67 9 9 12 9 12 0 0 -7 3 -12 8 -12 4
0 7 27 7 60 0 33 -3 60 -7 60 -5 0 -8 -20 -8 -45 0 -32 -5 -47 -17 -53 -31
-16 -43 -3 -43 49 0 27 -4 49 -10 49 -5 0 -10 -18 -10 -41z"/>
<path d="M6593 2700 c0 -36 2 -50 4 -32 2 17 2 47 0 65 -2 17 -4 3 -4 -33z"/>
<path d="M6712 2709 c3 -60 24 -82 57 -62 15 10 21 10 24 0 3 -7 5 17 4 53 0
49 -1 54 -4 20 -7 -84 -63 -92 -63 -9 0 28 -5 49 -11 49 -6 0 -9 -20 -7 -51z"/>
<path d="M7158 2749 c-13 -7 -18 -22 -18 -50 0 -32 4 -41 25 -51 55 -25 104
37 70 88 -16 25 -48 31 -77 13z m53 -9 c36 -20 17 -90 -25 -90 -12 0 -36 33
-36 50 0 17 24 50 36 50 3 0 14 -5 25 -10z"/>
<path d="M7285 2744 c-20 -20 -19 -78 1 -95 12 -10 22 -10 45 -2 32 12 34 11
19 -16 -13 -25 -37 -33 -61 -21 -11 6 -19 7 -19 1 0 -10 24 -21 49 -21 35 0
51 33 51 102 l0 65 -35 1 c-19 1 -41 -5 -50 -14z m58 -8 c16 -17 12 -60 -8
-76 -35 -29 -71 35 -40 70 22 24 29 25 48 6z"/>
<path d="M7470 2675 c0 -56 4 -85 11 -85 7 0 10 12 7 29 -4 28 -2 29 22 24 38
-7 62 20 58 65 -4 43 -29 63 -58 44 -24 -15 -33 -16 -25 -2 3 6 1 10 -4 10 -7
0 -11 -32 -11 -85z m86 38 c9 -34 -27 -73 -50 -53 -21 17 -20 67 1 78 24 14
42 4 49 -25z"/>
<path d="M7610 2740 c-24 -24 -25 -48 -4 -78 30 -44 94 -18 94 38 0 55 -52 78
-90 40z m65 -10 c34 -37 -2 -93 -46 -70 -25 14 -26 65 -1 79 24 14 26 14 47
-9z"/>
<path d="M7743 2753 c-22 -8 -14 -43 12 -55 31 -14 29 -44 -3 -41 -12 2 -22
-2 -22 -8 0 -17 52 -6 64 14 11 19 9 21 -41 54 -15 10 -15 14 -4 21 7 5 22 7
34 4 14 -3 18 -1 13 6 -7 12 -31 14 -53 5z"/>
<path d="M7913 2753 c-24 -9 -14 -42 18 -58 25 -13 28 -19 18 -31 -7 -8 -20
-12 -30 -9 -11 4 -19 2 -19 -4 0 -12 29 -15 54 -5 26 10 18 42 -15 59 -25 13
-28 19 -18 31 7 9 20 12 32 8 13 -4 17 -2 13 5 -7 11 -31 13 -53 4z"/>
<path d="M8074 2749 c-4 -7 0 -9 13 -5 12 4 25 1 32 -8 10 -12 7 -15 -18 -21
-37 -8 -53 -32 -40 -57 11 -20 44 -24 54 -7 4 6 1 10 -6 8 -44 -5 -56 25 -16
40 27 11 39 4 33 -17 -3 -10 -1 -24 4 -32 7 -11 10 2 10 41 0 43 -4 58 -16 63
-24 9 -42 7 -50 -5z"/>
<path d="M8182 2700 c1 -64 1 -64 7 -17 12 83 61 88 61 6 0 -27 5 -49 10 -49
6 0 10 22 10 49 0 59 -18 80 -55 63 -18 -8 -25 -8 -29 1 -2 7 -4 -17 -4 -53z"/>
<path d="M8502 2748 c-20 -20 -14 -37 18 -53 17 -9 30 -19 30 -24 0 -13 -28
-21 -47 -14 -11 4 -14 3 -9 -5 10 -17 42 -15 61 4 15 15 15 18 -1 35 -9 11
-23 19 -31 19 -7 0 -13 7 -13 15 0 14 11 19 38 16 6 -1 12 3 12 9 0 14 -43 13
-58 -2z"/>
<path d="M8730 2750 c-12 -8 -8 -10 14 -8 40 4 46 -20 7 -28 -61 -12 -48 -73
14 -71 35 1 35 1 35 47 0 63 -29 87 -70 60z m40 -85 c-15 -18 -40 -8 -40 15 0
12 9 20 23 22 25 3 34 -16 17 -37z"/>
<path d="M8830 2700 c0 -71 16 -80 22 -12 5 51 1 72 -13 72 -5 0 -9 -27 -9
-60z"/>
<path d="M8865 2750 c-3 -5 1 -10 9 -10 9 0 16 5 16 10 0 6 -4 10 -9 10 -6 0
-13 -4 -16 -10z"/>
<path d="M8926 2747 c-21 -15 -24 -70 -6 -92 18 -22 80 -17 80 6 0 6 -9 5 -20
-1 -14 -8 -26 -8 -41 0 -30 17 -17 35 24 35 31 0 37 4 37 21 0 40 -39 57 -74
31z m64 -27 c0 -6 -16 -10 -35 -10 -40 0 -41 2 -19 24 12 12 20 13 35 6 10 -6
19 -15 19 -20z"/>
<path d="M9086 2738 c3 -13 13 -38 20 -57 16 -38 10 -71 -12 -71 -8 0 -14 -4
-14 -10 0 -14 26 -12 37 3 6 6 20 37 31 67 11 30 23 63 27 73 4 9 3 17 -3 17
-5 0 -15 -20 -22 -45 -7 -25 -16 -45 -20 -45 -4 0 -13 20 -20 45 -7 25 -17 45
-22 45 -5 0 -6 -10 -2 -22z"/>
<path d="M9216 2747 c-24 -18 -25 -76 -1 -93 55 -40 118 25 80 82 -17 26 -51
31 -79 11z m55 -7 c36 -20 17 -90 -25 -90 -12 0 -36 33 -36 50 0 17 24 50 36
50 3 0 14 -5 25 -10z"/>
<path d="M9332 2709 c3 -60 24 -82 57 -62 15 10 21 10 24 0 3 -7 5 17 4 53 0
49 -1 54 -4 20 -7 -84 -63 -92 -63 -9 0 28 -5 49 -11 49 -6 0 -9 -20 -7 -51z"/>
<path d="M9460 2700 c0 -33 4 -60 10 -60 6 0 10 21 10 46 0 37 4 47 20 51 11
3 20 9 20 14 0 12 -17 11 -25 -1 -3 -5 -11 -10 -16 -10 -6 0 -7 5 -4 10 3 6 1
10 -4 10 -7 0 -11 -24 -11 -60z"/>
<path d="M9600 2700 c0 -33 4 -60 10 -60 6 0 10 27 10 60 0 33 -4 60 -10 60
-6 0 -10 -27 -10 -60z"/>
<path d="M9797 2742 c-21 -23 -22 -66 -1 -86 18 -19 60 -21 70 -4 5 7 1 9 -13
6 -25 -7 -53 8 -53 27 0 11 12 15 40 15 44 0 52 16 24 44 -21 21 -47 20 -67
-2z m63 -18 c0 -9 -11 -14 -30 -14 -33 0 -39 14 -13 28 21 12 43 5 43 -14z"/>
<path d="M9914 2748 c-5 -8 -2 -9 9 -5 19 7 47 -1 47 -13 0 -4 -15 -11 -32
-16 -26 -8 -34 -16 -36 -37 -4 -32 21 -46 49 -28 12 7 19 7 19 1 0 -5 3 -10 8
-10 8 0 7 82 -2 105 -6 18 -52 20 -62 3z m41 -84 c-21 -16 -47 -7 -43 14 4 22
52 33 57 13 2 -8 -5 -20 -14 -27z"/>
<path d="M10021 2746 c-15 -18 -5 -41 25 -54 41 -19 30 -38 -20 -32 -11 1 -15
-3 -12 -9 10 -15 51 -14 65 3 15 18 5 41 -25 54 -38 18 -29 38 14 33 6 -1 12
3 12 9 0 15 -46 12 -59 -4z"/>
<path d="M10179 2705 c9 -31 20 -57 25 -58 5 -1 16 18 24 43 l15 44 14 -47 c7
-26 17 -47 22 -47 5 0 14 20 20 44 6 24 13 51 17 60 3 9 2 16 -4 16 -6 0 -13
-18 -17 -40 -9 -56 -19 -56 -33 -3 -14 51 -23 48 -43 -12 l-13 -40 -13 48 c-8
26 -18 47 -23 47 -4 0 -1 -25 9 -55z"/>
<path d="M10340 2700 c0 -33 3 -60 8 -60 4 0 7 27 7 60 0 33 -3 60 -7 60 -5 0
-8 -27 -8 -60z"/>
<path d="M10875 2744 c-10 -11 -15 -29 -13 -53 2 -29 8 -38 31 -45 20 -7 30
-6 40 4 10 10 9 12 -6 7 -23 -9 -57 9 -57 28 0 11 12 15 40 15 32 0 40 4 40
18 0 40 -45 55 -75 26z m65 -24 c0 -6 -16 -10 -35 -10 -40 0 -41 2 -19 24 12
12 20 13 35 6 10 -6 19 -15 19 -20z"/>
<path d="M11033 2744 c3 -11 11 -38 18 -61 7 -24 15 -43 19 -43 3 0 13 21 22
48 l15 47 14 -47 c7 -27 16 -48 20 -48 10 0 42 97 36 113 -2 6 -11 -10 -19
-38 l-15 -50 -14 48 c-7 26 -17 47 -21 47 -4 0 -13 -20 -19 -45 -13 -51 -24
-51 -33 0 -4 19 -12 37 -17 41 -7 4 -9 0 -6 -12z"/>
<path d="M11217 2742 c-34 -37 -12 -102 34 -102 24 0 59 34 59 58 0 52 -60 80
-93 44z m54 -2 c36 -20 17 -90 -25 -90 -12 0 -36 33 -36 50 0 17 24 50 36 50
3 0 14 -5 25 -10z"/>
<path d="M11342 2700 l1 -65 7 50 c4 28 3 57 -1 65 -5 9 -8 -11 -7 -50z"/>
<path d="M11365 2750 c-3 -5 1 -10 9 -10 9 0 16 5 16 10 0 6 -4 10 -9 10 -6 0
-13 -4 -16 -10z"/>
<path d="M11880 2719 c0 -22 5 -49 10 -60 12 -21 45 -26 56 -8 4 8 9 7 15 -2
5 -9 8 11 7 51 -1 52 -2 56 -5 20 -7 -84 -63 -92 -63 -9 0 27 -4 49 -10 49 -5
0 -10 -18 -10 -41z"/>
<path d="M12011 2700 c1 -57 2 -60 8 -25 8 48 17 65 37 65 8 0 14 5 14 10 0
14 -13 13 -28 -2 -10 -10 -15 -10 -22 2 -7 10 -9 -6 -9 -50z"/>
<path d="M12152 2675 c1 -49 3 -73 5 -53 4 35 5 37 29 26 19 -9 28 -8 44 7 48
43 3 129 -50 95 -9 -6 -17 -5 -22 3 -4 7 -7 -28 -6 -78z m72 59 c9 -8 16 -21
16 -27 0 -16 -29 -57 -40 -57 -15 0 -40 31 -40 50 0 19 25 50 40 50 5 0 16 -7
24 -16z"/>
<path d="M12344 2748 c-5 -8 -2 -9 9 -5 19 7 47 -1 47 -14 0 -5 -15 -12 -32
-17 -41 -10 -53 -56 -18 -67 11 -4 27 -2 35 5 10 8 14 8 18 -2 3 -7 6 12 6 43
1 43 -3 58 -15 63 -24 9 -42 7 -50 -6z m56 -58 c0 -21 -27 -40 -47 -33 -21 7
-15 33 10 43 33 13 37 12 37 -10z"/>
<path d="M12610 2740 c-11 -11 -20 -29 -20 -40 0 -22 33 -60 53 -60 49 0 75
70 39 103 -25 22 -48 21 -72 -3z m70 -23 c14 -25 13 -28 -6 -48 -18 -17 -25
-19 -43 -10 -26 15 -29 65 -3 80 23 14 34 9 52 -22z"/>
<path d="M12733 2700 c0 -46 2 -53 4 -22 3 28 11 47 24 55 25 15 25 31 0 17
-14 -7 -21 -6 -24 3 -3 6 -5 -17 -4 -53z"/>
<path d="M12812 2700 c1 -64 1 -64 7 -17 12 83 61 88 61 6 0 -27 5 -49 10 -49
6 0 10 20 10 44 0 44 19 74 40 61 5 -3 10 -28 10 -56 0 -27 5 -49 10 -49 6 0
10 22 10 49 0 58 -18 80 -54 63 -17 -7 -27 -7 -35 1 -7 7 -17 7 -35 -1 -19 -8
-26 -8 -30 1 -2 7 -4 -17 -4 -53z"/>
<path d="M13060 2700 c0 -33 4 -60 10 -60 6 0 10 20 10 44 0 86 56 85 63 -2
l3 -47 2 46 c4 89 58 89 65 1 3 -46 3 -46 5 10 2 49 -1 58 -18 63 -12 4 -27 2
-35 -5 -10 -8 -18 -8 -33 1 -16 10 -23 10 -36 0 -11 -9 -16 -10 -16 -2 0 6 -4
11 -10 11 -6 0 -10 -27 -10 -60z"/>
<path d="M13264 2748 c-5 -8 -2 -9 9 -5 19 7 47 -1 47 -14 0 -5 -15 -12 -32
-17 -41 -10 -53 -56 -18 -67 11 -4 27 -2 35 5 10 8 14 8 18 -2 3 -7 6 12 6 43
1 43 -3 58 -15 63 -24 9 -42 7 -50 -6z m56 -58 c0 -21 -27 -40 -47 -33 -21 7
-15 33 10 43 33 13 37 12 37 -10z"/>
<path d="M13495 2744 c-10 -11 -15 -29 -13 -53 2 -29 8 -38 31 -45 20 -7 30
-6 40 4 10 10 9 12 -6 7 -23 -9 -57 9 -57 28 0 11 12 15 40 15 33 0 40 3 40
20 0 18 -26 40 -49 40 -5 0 -17 -7 -26 -16z m53 -6 c20 -20 14 -28 -23 -28
-38 0 -46 13 -17 29 22 13 26 13 40 -1z"/>
<path d="M13606 2745 c-19 -20 -12 -39 20 -54 33 -15 25 -37 -11 -34 -20 2
-25 -1 -17 -9 14 -14 58 -2 66 17 4 11 -4 22 -24 33 -35 19 -36 48 -2 45 12
-2 22 2 22 7 0 15 -37 12 -54 -5z"/>
<path d="M11600 2655 c0 -8 5 -15 10 -15 6 0 10 7 10 15 0 8 -4 15 -10 15 -5
0 -10 -7 -10 -15z"/>
<path d="M6410 2400 c0 -5 5 -10 10 -10 6 0 10 5 10 10 0 6 -4 10 -10 10 -5 0
-10 -4 -10 -10z"/>
<path d="M7610 2400 c0 -5 5 -10 10 -10 6 0 10 5 10 10 0 6 -4 10 -10 10 -5 0
-10 -4 -10 -10z"/>
<path d="M8170 2380 c0 -28 -2 -30 -25 -24 -52 13 -88 -62 -49 -100 18 -19 50
-21 60 -5 4 7 1 10 -7 7 -43 -15 -71 60 -30 81 29 16 56 -9 48 -45 -3 -17 -2
-36 4 -44 6 -10 9 15 9 73 0 48 -2 87 -5 87 -3 0 -5 -14 -5 -30z"/>
<path d="M8220 2400 c0 -5 5 -10 10 -10 6 0 10 5 10 10 0 6 -4 10 -10 10 -5 0
-10 -4 -10 -10z"/>
<path d="M8780 2381 c0 -24 -3 -28 -22 -24 -33 6 -59 -18 -60 -54 -1 -45 16
-62 63 -60 l39 1 0 83 c0 49 -4 83 -10 83 -5 0 -10 -13 -10 -29z m0 -81 c0
-38 -31 -57 -54 -34 -33 33 -4 94 35 74 12 -7 19 -21 19 -40z"/>
<path d="M9162 2325 c-1 -58 2 -85 7 -75 6 8 7 26 4 41 -6 33 31 66 54 47 33
-27 3 -94 -36 -80 -8 3 -11 0 -7 -7 10 -16 42 -14 60 5 20 19 21 64 2 90 -12
16 -18 17 -45 8 -30 -12 -30 -11 -34 25 -2 20 -4 -4 -5 -54z"/>
<path d="M9290 2325 c0 -50 4 -85 10 -85 6 0 10 35 10 85 0 50 -4 85 -10 85
-6 0 -10 -35 -10 -85z"/>
<path d="M9340 2400 c0 -5 5 -10 10 -10 6 0 10 5 10 10 0 6 -4 10 -10 10 -5 0
-10 -4 -10 -10z"/>
<path d="M9490 2325 c0 -50 4 -85 10 -85 6 0 10 20 10 45 0 33 5 47 18 54 27
15 42 -5 42 -56 0 -24 5 -43 10 -43 13 0 13 76 0 101 -12 21 -40 25 -58 7 -9
-9 -12 -4 -12 25 0 20 -4 37 -10 37 -6 0 -10 -35 -10 -85z"/>
<path d="M11184 2325 c0 -49 1 -71 3 -48 2 23 2 64 0 90 -2 26 -3 8 -3 -42z"/>
<path d="M11234 2325 c0 -49 1 -71 3 -48 2 23 2 64 0 90 -2 26 -3 8 -3 -42z"/>
<path d="M12164 2325 c0 -49 1 -71 3 -48 2 23 2 64 0 90 -2 26 -3 8 -3 -42z"/>
<path d="M6470 2375 c0 -8 -6 -15 -12 -15 -10 0 -10 -2 -1 -8 6 -4 13 -30 15
-57 2 -41 7 -50 23 -53 16 -3 18 -1 8 9 -7 7 -13 32 -13 55 0 32 4 44 18 47
16 4 16 5 0 6 -10 0 -18 8 -18 16 0 8 -4 15 -10 15 -5 0 -10 -7 -10 -15z"/>
<path d="M7111 2378 c0 -10 -6 -18 -12 -18 -8 0 -8 -4 -1 -13 6 -7 12 -33 14
-57 2 -33 8 -46 21 -48 9 -2 17 1 17 7 0 6 -7 11 -15 11 -23 0 -20 76 3 89 15
9 15 10 0 11 -9 0 -19 8 -21 18 -4 16 -5 16 -6 0z"/>
<path d="M7670 2376 c0 -8 -6 -17 -12 -19 -10 -4 -10 -6 0 -6 8 -1 12 -18 12
-51 0 -53 19 -75 43 -51 9 10 9 12 -3 9 -11 -2 -16 9 -18 45 -2 31 1 47 7 43
5 -4 12 -2 16 4 3 5 -1 10 -9 10 -9 0 -16 7 -16 15 0 8 -4 15 -10 15 -5 0 -10
-6 -10 -14z"/>
<path d="M8280 2375 c0 -8 -5 -15 -12 -15 -9 0 -9 -3 0 -12 7 -7 12 -31 12
-55 0 -46 20 -67 43 -44 9 10 9 12 -3 9 -11 -2 -16 9 -18 45 -2 31 1 47 7 43
5 -4 12 -2 16 4 3 5 -1 10 -9 10 -9 0 -16 7 -16 15 0 8 -4 15 -10 15 -5 0 -10
-7 -10 -15z"/>
<path d="M10560 2375 c0 -8 -5 -15 -11 -15 -8 0 -8 -4 -1 -13 6 -7 12 -33 14
-57 2 -36 7 -46 23 -49 19 -3 19 -3 3 16 -10 11 -18 34 -18 51 0 19 7 35 18
41 16 10 16 10 -2 11 -12 0 -16 5 -12 15 3 8 1 15 -4 15 -6 0 -10 -7 -10 -15z"/>
<path d="M10878 2370 c-10 -11 -14 -20 -8 -20 5 0 10 -24 12 -52 2 -44 6 -53
23 -56 16 -3 18 -1 8 9 -7 7 -13 32 -13 55 0 32 4 44 18 47 15 4 15 5 0 6 -9
0 -18 8 -20 16 -2 13 -6 12 -20 -5z"/>
<path d="M6410 2300 c0 -33 3 -60 8 -60 4 0 7 27 7 60 0 33 -3 60 -7 60 -5 0
-8 -27 -8 -60z"/>
<path d="M6618 2349 c-21 -12 -25 -78 -6 -97 15 -15 48 -15 68 -1 12 8 9 9
-11 5 -29 -6 -66 15 -55 32 4 7 23 12 42 12 26 0 34 4 34 18 0 37 -36 52 -72
31z m62 -29 c0 -6 -16 -10 -35 -10 -40 0 -41 2 -19 24 12 12 20 13 35 6 10 -6
19 -15 19 -20z"/>
<path d="M6730 2350 c-12 -8 -8 -10 14 -8 40 4 46 -20 7 -28 -61 -12 -48 -73
14 -71 35 1 35 1 35 47 0 63 -29 87 -70 60z m37 -87 c-18 -18 -37 -9 -37 17 0
12 8 20 23 22 27 4 35 -18 14 -39z"/>
<path d="M6843 2353 c-24 -9 -14 -42 18 -58 25 -13 28 -19 18 -31 -7 -8 -20
-12 -30 -9 -11 4 -19 2 -19 -4 0 -12 29 -15 54 -5 26 10 18 42 -15 59 -25 13
-28 19 -18 31 7 9 20 12 32 8 13 -4 17 -2 13 5 -7 11 -31 13 -53 4z"/>
<path d="M6935 2301 c25 -61 25 -91 -1 -91 -8 0 -14 -4 -14 -10 0 -25 35 -3
48 30 6 14 19 49 31 78 11 28 17 52 12 52 -5 0 -17 -24 -27 -52 l-17 -53 -17
49 c-9 28 -21 51 -28 54 -6 2 0 -23 13 -57z"/>
<path d="M7187 2342 c-35 -38 -9 -102 40 -102 45 0 71 71 37 104 -21 21 -57
20 -77 -2z m73 -42 c0 -34 -26 -53 -53 -39 -22 13 -22 65 0 78 27 14 53 -5 53
-39z"/>
<path d="M7370 2303 c10 -31 22 -59 27 -60 5 -2 15 18 22 44 l14 48 14 -47 c8
-27 18 -48 23 -48 5 0 16 24 24 54 19 63 19 69 7 62 -5 -4 -12 -24 -16 -46 -9
-51 -20 -51 -31 1 -9 42 -26 53 -33 22 -2 -10 -8 -29 -13 -43 -10 -24 -11 -23
-24 23 -8 26 -18 47 -23 47 -5 0 -1 -26 9 -57z"/>
<path d="M7530 2300 c0 -33 4 -60 10 -60 6 0 10 21 10 46 0 37 4 47 20 51 11
3 20 9 20 14 0 13 -14 11 -28 -3 -9 -9 -12 -9 -12 0 0 7 -4 12 -10 12 -6 0
-10 -27 -10 -60z"/>
<path d="M7610 2300 c0 -33 4 -60 10 -60 6 0 10 27 10 60 0 33 -4 60 -10 60
-6 0 -10 -27 -10 -60z"/>
<path d="M7756 2347 c-21 -15 -24 -70 -6 -92 18 -22 80 -17 80 6 0 6 -9 5 -20
-1 -14 -8 -26 -8 -41 0 -30 17 -17 35 24 35 31 0 37 4 37 21 0 40 -39 57 -74
31z m64 -27 c0 -6 -16 -10 -35 -10 -40 0 -41 2 -19 24 12 12 20 13 35 6 10 -6
19 -15 19 -20z"/>
<path d="M7976 2338 c-9 -12 -16 -29 -16 -38 0 -44 66 -81 86 -48 5 8 2 9 -10
5 -22 -9 -56 9 -56 28 0 11 12 15 40 15 44 0 52 16 24 44 -22 22 -50 20 -68
-6z m64 -14 c0 -9 -11 -14 -30 -14 -33 0 -39 14 -13 28 21 12 43 5 43 -14z"/>
<path d="M8220 2300 c0 -33 4 -60 10 -60 6 0 10 27 10 60 0 33 -4 60 -10 60
-6 0 -10 -27 -10 -60z"/>
<path d="M8470 2349 c-12 -9 -11 -10 6 -6 12 2 28 1 35 -4 12 -8 11 -11 -1
-19 -8 -5 -23 -10 -32 -10 -21 0 -33 -36 -18 -54 6 -8 26 -14 45 -13 35 1 35
1 35 47 0 63 -30 88 -70 59z m46 -74 c-3 -8 -15 -15 -26 -15 -29 0 -27 38 3
42 24 3 32 -5 23 -27z"/>
<path d="M8570 2300 c0 -33 4 -60 10 -60 6 0 10 20 10 45 0 32 5 47 18 53 30
16 42 3 42 -49 0 -27 5 -49 10 -49 13 0 13 76 0 101 -12 21 -40 25 -58 7 -9
-9 -12 -9 -12 0 0 7 -4 12 -10 12 -6 0 -10 -27 -10 -60z"/>
<path d="M8901 2276 c-1 -49 1 -87 5 -84 3 3 5 33 6 67 1 50 5 65 21 76 27 19
47 3 47 -36 0 -30 -24 -50 -49 -41 -8 3 -11 0 -7 -7 10 -16 42 -14 60 5 20 19
21 64 2 90 -13 16 -18 17 -45 8 -22 -9 -31 -9 -35 0 -2 6 -5 -29 -5 -78z"/>
<path d="M9034 2311 c1 -63 21 -85 57 -63 12 8 18 9 14 3 -3 -6 -1 -11 4 -11
7 0 11 24 11 60 0 33 -4 60 -10 60 -5 0 -10 -20 -10 -44 0 -82 -49 -82 -61 1
l-7 48 2 -54z"/>
<path d="M9340 2300 c0 -33 4 -60 10 -60 6 0 10 27 10 60 0 33 -4 60 -10 60
-6 0 -10 -27 -10 -60z"/>
<path d="M9402 2348 c-20 -20 -14 -37 18 -53 17 -9 30 -19 30 -24 0 -13 -28
-21 -47 -14 -11 4 -14 3 -9 -5 10 -17 42 -15 61 4 15 15 15 18 -1 35 -9 11
-23 19 -31 19 -7 0 -13 7 -13 15 0 14 11 19 38 16 6 -1 12 3 12 9 0 14 -43 13
-58 -2z"/>
<path d="M9676 2338 c3 -13 13 -38 20 -57 16 -38 10 -71 -12 -71 -8 0 -14 -4
-14 -10 0 -14 26 -12 37 3 6 6 20 37 31 67 11 30 23 63 27 73 4 9 3 17 -3 17
-5 0 -15 -20 -22 -45 -7 -25 -16 -45 -20 -45 -4 0 -13 20 -20 45 -7 25 -17 45
-22 45 -5 0 -6 -10 -2 -22z"/>
<path d="M9806 2347 c-24 -18 -25 -76 -1 -93 55 -40 118 25 80 82 -17 26 -51
31 -79 11z m55 -7 c36 -20 17 -90 -25 -90 -12 0 -36 33 -36 50 0 17 24 50 36
50 3 0 14 -5 25 -10z"/>
<path d="M9922 2309 c3 -60 24 -82 57 -62 15 10 21 10 24 0 3 -7 5 17 4 53 0
49 -1 54 -4 20 -7 -84 -63 -92 -63 -9 0 28 -5 49 -11 49 -6 0 -9 -20 -7 -51z"/>
<path d="M10050 2300 c0 -33 4 -60 10 -60 6 0 10 21 10 46 0 37 4 47 20 51 11
3 20 9 20 14 0 12 -17 11 -25 -1 -3 -5 -11 -10 -16 -10 -6 0 -7 5 -4 10 3 6 1
10 -4 10 -7 0 -11 -24 -11 -60z"/>
<path d="M10200 2340 c-24 -24 -25 -48 -4 -78 16 -23 58 -30 70 -10 5 7 1 9
-13 6 -31 -8 -53 10 -53 42 0 33 28 54 56 43 12 -4 15 -3 10 5 -11 18 -44 14
-66 -8z"/>
<path d="M10306 2344 c-34 -33 -10 -104 35 -104 24 0 59 34 59 58 0 50 -60 80
-94 46z m74 -44 c0 -38 -28 -55 -58 -34 -12 8 -22 24 -22 34 0 10 10 26 22 34
30 21 58 4 58 -34z"/>
<path d="M10425 2300 c0 -33 3 -60 8 -60 4 0 7 20 7 45 0 32 5 47 18 53 30 16
42 3 42 -49 0 -27 5 -49 10 -49 13 0 13 76 0 101 -12 21 -40 25 -58 7 -9 -9
-12 -9 -12 0 0 7 -3 12 -7 12 -5 0 -8 -27 -8 -60z"/>
<path d="M10640 2340 c-24 -24 -25 -48 -4 -78 16 -24 58 -30 70 -10 5 8 2 9
-10 5 -22 -9 -56 9 -56 28 0 11 12 15 40 15 44 0 52 16 24 44 -21 21 -40 20
-64 -4z m60 -16 c0 -9 -11 -14 -30 -14 -33 0 -39 14 -13 28 21 12 43 5 43 -14z"/>
<path d="M10752 2300 c1 -64 1 -64 7 -17 7 49 23 69 48 60 16 -6 27 -45 21
-78 -3 -14 -1 -25 3 -25 5 0 9 22 9 49 0 59 -18 80 -55 63 -18 -8 -25 -8 -29
1 -2 7 -4 -17 -4 -53z"/>
<path d="M11074 2348 c-5 -8 -2 -9 11 -5 9 4 24 2 32 -5 13 -10 10 -14 -18
-23 -28 -10 -34 -17 -34 -41 0 -31 28 -45 49 -24 8 9 7 11 -4 10 -44 -6 -58
24 -17 39 27 11 39 4 33 -17 -3 -10 -1 -24 4 -32 7 -11 10 2 10 41 0 43 -4 58
-16 63 -24 9 -42 7 -50 -6z"/>
<path d="M11353 2300 c0 -36 2 -50 4 -32 2 17 2 47 0 65 -2 17 -4 3 -4 -33z"/>
<path d="M11402 2300 l0 -65 9 49 c15 91 63 88 72 -4 l4 -45 1 51 c2 62 -15
83 -53 66 -18 -8 -25 -8 -29 1 -2 7 -4 -17 -4 -53z"/>
<path d="M11600 2340 c-11 -11 -20 -29 -20 -40 0 -25 34 -60 58 -60 44 0 69
72 36 104 -21 22 -50 20 -74 -4z m64 -6 c9 -8 16 -24 16 -34 0 -17 -24 -50
-36 -50 -3 0 -14 5 -25 10 -25 14 -26 65 -1 79 23 14 28 14 46 -5z"/>
<path d="M11720 2300 c0 -33 4 -60 10 -60 6 0 10 20 10 44 0 86 56 85 63 -2 3
-46 3 -46 5 10 2 49 -1 58 -18 63 -12 4 -27 1 -35 -5 -11 -9 -15 -9 -15 -1 0
6 -4 11 -10 11 -6 0 -10 -27 -10 -60z"/>
<path d="M11860 2340 c-24 -24 -25 -48 -4 -78 16 -24 58 -30 70 -10 5 8 2 9
-10 5 -22 -9 -56 9 -56 28 0 11 12 15 40 15 44 0 52 16 24 44 -21 21 -40 20
-64 -4z m44 4 c28 -11 18 -34 -14 -34 -32 0 -37 9 -18 28 14 14 12 14 32 6z"/>
<path d="M12030 2276 c0 -49 2 -87 6 -84 3 3 5 34 6 68 1 80 26 110 62 74 20
-20 20 -34 0 -62 -11 -16 -22 -21 -36 -16 -14 4 -18 2 -14 -5 11 -17 41 -13
59 7 43 47 -2 124 -53 92 -9 -6 -17 -5 -22 3 -4 7 -8 -28 -8 -77z"/>
<path d="M12224 2348 c-5 -8 -2 -9 9 -5 19 7 47 -1 47 -14 0 -5 -15 -12 -32
-17 -41 -10 -53 -56 -18 -67 11 -4 27 -2 35 5 10 8 14 8 18 -2 3 -7 6 12 6 43
1 43 -3 58 -15 63 -24 9 -42 7 -50 -6z m56 -58 c0 -21 -27 -40 -47 -33 -21 7
-15 33 10 43 33 13 37 12 37 -10z"/>
<path d="M12340 2340 c-11 -11 -20 -29 -20 -40 0 -22 33 -60 53 -60 6 0 19 5
27 11 12 9 12 10 -3 5 -30 -10 -57 11 -57 45 0 24 6 33 33 44 27 12 28 14 10
15 -13 0 -32 -9 -43 -20z"/>
<path d="M12445 2344 c-10 -11 -15 -29 -13 -53 2 -29 8 -38 31 -45 20 -7 30
-6 40 4 10 10 9 12 -6 7 -23 -9 -57 9 -57 28 0 11 12 15 40 15 33 0 40 3 40
20 0 18 -26 40 -49 40 -5 0 -17 -7 -26 -16z m53 -6 c20 -20 14 -28 -23 -28
-38 0 -46 13 -17 29 22 13 26 13 40 -1z"/>
<path d="M7857 2256 c-4 -10 -7 -25 -6 -34 0 -11 4 -9 10 7 5 13 8 29 6 35 -2
5 -6 2 -10 -8z"/>
<path d="M8347 2256 c-4 -10 -7 -25 -6 -34 0 -11 4 -9 10 7 5 13 8 29 6 35 -2
5 -6 2 -10 -8z"/>
<path d="M10947 2256 c-4 -10 -7 -25 -6 -34 0 -11 4 -9 10 7 5 13 8 29 6 35
-2 5 -6 2 -10 -8z"/>
<path d="M12550 2254 c0 -8 5 -12 10 -9 6 4 8 11 5 16 -9 14 -15 11 -15 -7z"/>
<path d="M9555 1605 c-25 -24 -25 -26 -25 -210 0 -184 0 -186 25 -210 l24 -25
561 0 561 0 24 25 c25 24 25 26 25 210 0 184 0 186 -25 210 l-24 25 -561 0
-561 0 -24 -25z m1165 -5 c19 -19 20 -33 20 -205 0 -172 -1 -186 -20 -205 -20
-20 -33 -20 -580 -20 -547 0 -560 0 -580 20 -19 19 -20 33 -20 205 0 172 1
186 20 205 20 20 33 20 580 20 547 0 560 0 580 -20z"/>
<path d="M10560 1431 c0 -25 -3 -28 -25 -24 -19 4 -27 0 -36 -20 -17 -38 2
-67 46 -65 l35 1 0 69 c0 39 -4 68 -10 68 -5 0 -10 -13 -10 -29z m0 -66 c0
-18 -5 -25 -19 -25 -11 0 -23 5 -26 10 -11 18 3 40 25 40 15 0 20 -7 20 -25z"/>
<path d="M9723 1435 c-50 -35 -17 -120 44 -113 24 2 28 8 31 36 3 29 1 32 -25
32 -25 -1 -26 -2 -10 -14 26 -20 21 -38 -10 -34 -22 2 -29 9 -31 31 -5 38 15
60 50 55 18 -3 27 0 25 6 -6 18 -50 18 -74 1z"/>
<path d="M10036 1434 c-19 -19 -7 -49 24 -59 11 -3 20 -13 20 -22 0 -11 -8
-14 -30 -11 -19 3 -29 1 -27 -6 2 -6 18 -12 35 -14 43 -4 61 29 32 58 -11 11
-24 20 -30 20 -5 0 -10 7 -10 15 0 9 9 15 25 15 14 0 25 5 25 10 0 16 -47 12
-64 -6z"/>
<path d="M9923 1425 c-14 -26 -5 -95 14 -102 8 -3 19 -1 26 6 8 8 7 11 -6 11
-23 0 -22 39 1 56 16 12 16 13 0 14 -9 0 -18 8 -20 18 -4 15 -5 15 -15 -3z"/>
<path d="M10121 1423 c-5 -10 -6 -36 -2 -58 5 -31 11 -41 29 -43 12 -2 22 1
22 7 0 6 -4 11 -10 11 -14 0 -13 43 2 58 9 9 9 12 0 12 -7 0 -12 7 -12 15 0
20 -17 19 -29 -2z"/>
<path d="M10350 1425 c0 -14 -30 -21 -67 -16 -9 1 -13 -13 -13 -44 0 -25 5
-45 10 -45 6 0 10 10 10 23 0 30 11 44 35 49 16 2 21 -4 25 -32 3 -23 11 -36
23 -38 9 -2 17 1 17 7 0 6 -4 11 -10 11 -14 0 -12 47 3 54 10 5 10 7 0 12 -7
3 -13 12 -13 20 0 8 -4 14 -10 14 -5 0 -10 -7 -10 -15z"/>
<path d="M9832 1398 c-29 -29 -7 -78 35 -78 29 0 30 18 1 22 -35 5 -34 28 1
28 17 0 31 4 31 8 0 14 -23 32 -40 32 -9 0 -21 -5 -28 -12z m41 -15 c-7 -2
-19 -2 -25 0 -7 3 -2 5 12 5 14 0 19 -2 13 -5z"/>
<path d="M10185 1401 c-4 -7 5 -11 22 -12 l28 0 -25 -10 c-51 -20 -43 -58 11
-57 29 1 30 3 27 42 -3 36 -6 41 -30 44 -14 2 -29 -2 -33 -7z m45 -46 c0 -8
-7 -15 -15 -15 -26 0 -18 20 13 29 1 1 2 -6 2 -14z"/>
<path d="M10412 1398 c-29 -29 -7 -78 35 -78 13 0 23 5 23 10 0 6 -11 10 -25
10 -16 0 -25 6 -25 15 0 10 10 15 30 15 17 0 30 4 30 8 0 14 -23 32 -40 32 -9
0 -21 -5 -28 -12z m41 -15 c-7 -2 -19 -2 -25 0 -7 3 -2 5 12 5 14 0 19 -2 13
-5z"/>
<path d="M8245 1595 c-25 -24 -25 -27 -25 -200 0 -173 0 -176 25 -200 l24 -25
556 0 556 0 24 25 c25 24 25 27 25 200 0 173 0 176 -25 200 l-24 25 -556 0
-556 0 -24 -25z m165 -200 c0 -52 1 -55 25 -55 14 0 25 -4 25 -10 0 -5 -18
-10 -40 -10 l-40 0 0 65 c0 51 3 65 15 65 12 0 15 -13 15 -55z m510 15 c7 -22
16 -40 20 -40 4 0 12 18 19 40 9 29 17 40 31 40 18 0 20 -7 20 -65 0 -51 -3
-65 -15 -65 -11 0 -15 11 -16 38 l0 37 -16 -37 c-8 -21 -19 -38 -24 -38 -6 0
-18 19 -29 43 l-19 42 6 -42 c5 -35 3 -43 -11 -43 -13 0 -16 12 -16 65 0 56 2
65 18 65 13 0 23 -13 32 -40z m-380 -15 c16 -19 4 -35 -26 -35 -13 0 -24 -5
-24 -11 0 -7 10 -9 25 -7 17 4 25 1 25 -8 0 -17 -51 -19 -68 -2 -7 7 -12 21
-12 33 0 41 54 62 80 30z m88 3 c7 -7 12 -27 12 -45 0 -32 -2 -33 -39 -33 -60
0 -66 52 -8 63 18 3 16 5 -6 6 -16 0 -26 5 -22 11 9 14 48 13 63 -2z m170 -35
c2 -34 0 -43 -12 -43 -12 0 -16 10 -16 36 0 45 -24 42 -28 -4 -2 -21 -9 -32
-19 -32 -12 0 -14 9 -11 39 3 35 1 38 -14 30 -11 -6 -18 -21 -18 -39 0 -20 -5
-30 -15 -30 -11 0 -15 12 -15 45 l0 46 73 -3 72 -3 3 -42z m310 35 c7 -7 12
-21 12 -33 0 -29 -19 -45 -52 -45 -36 0 -56 36 -39 69 13 23 59 29 79 9z m82
3 c0 -5 -7 -11 -15 -15 -9 -3 -15 -18 -15 -36 0 -20 -5 -30 -15 -30 -11 0 -15
12 -15 45 0 43 1 45 30 45 17 0 30 -4 30 -9z m80 -6 c16 -19 4 -35 -26 -35
-13 0 -24 -5 -24 -11 0 -7 10 -9 25 -7 17 4 25 1 25 -8 0 -17 -51 -19 -68 -2
-7 7 -12 21 -12 33 0 41 54 62 80 30z"/>
<path d="M8498 1383 c7 -3 16 -2 19 1 4 3 -2 6 -13 5 -11 0 -14 -3 -6 -6z"/>
<path d="M8580 1350 c0 -5 4 -10 9 -10 6 0 13 5 16 10 3 6 -1 10 -9 10 -9 0
-16 -4 -16 -10z"/>
<path d="M9054 1375 c-7 -18 3 -35 22 -35 8 0 14 10 14 25 0 27 -27 35 -36 10z"/>
<path d="M9228 1383 c7 -3 16 -2 19 1 4 3 -2 6 -13 5 -11 0 -14 -3 -6 -6z"/>
<path d="M18980 153 c0 -5 25 -8 55 -8 30 0 55 3 55 8 0 4 -25 7 -55 7 -30 0
-55 -3 -55 -7z"/>
<path d="M19006 108 c21 -35 37 -35 58 -1 l17 28 -20 -22 c-10 -13 -22 -23
-26 -23 -4 0 -16 10 -26 23 l-20 22 17 -27z"/>
</g>
</svg>
